<?xml version="1.0" encoding="UTF-8"?>
<svg version="1.1" xmlns="http://www.w3.org/2000/svg" width="1780" height="884">
<path d="M0 0 C587.4 0 1174.8 0 1780 0 C1780 291.72 1780 583.44 1780 884 C1192.6 884 605.2 884 0 884 C0 592.28 0 300.56 0 0 Z " fill="#202A3A" transform="translate(0,0)"/>
<path d="M0 0 C-0.02618408 0.81976318 -0.05236816 1.63952637 -0.0793457 2.48413086 C-0.92342102 25.25028646 -0.92342102 25.25028646 5 47 C5.30534668 47.69254883 5.61069336 48.38509766 5.92529297 49.09863281 C13.51871003 65.87928761 24.41889647 79.15620683 37 92.4375 C57.97635865 114.71436436 70.88701058 137.20620027 70.328125 168.5390625 C69.48266706 188.36574426 58.32391331 205.82506369 44 219 C37.22472523 224.5366049 29.33563205 230.20000005 21 233 C20.01 232.67 19.02 232.34 18 232 C18.54269531 230.91203125 19.08539062 229.8240625 19.64453125 228.703125 C29.04773097 209.53556915 31.56683502 193.68288773 25.00390625 172.8359375 C18.18167825 154.94234296 3.22705946 137.61352973 -14 129 C-13.95359375 130.30453125 -13.9071875 131.6090625 -13.859375 132.953125 C-13.51509677 146.67694862 -14.17989882 158.47521563 -24 169 C-29.39138667 174.65863213 -35.97313885 179.72873503 -44.09375 180.09423828 C-46.06274825 180.09727151 -48.03168953 180.05212687 -50 180 C-52.53427758 197.21951105 -54.50167708 213.70375391 -44.98828125 229.22265625 C-44 231 -44 231 -44 233 C-60.57215574 230.57024784 -75.21726872 216.66132158 -85.265625 204.1875 C-96.95663266 187.76654267 -101.12166663 168.06167945 -98.5 148.21484375 C-96.96736434 140.35137784 -94.37899961 133.24348768 -91 126 C-90.59265625 125.05898438 -90.1853125 124.11796875 -89.765625 123.1484375 C-84.20503073 111.01325824 -75.30868501 98.58586368 -65 90 C-64.67 90 -64.34 90 -64 90 C-63.97421875 91.03898437 -63.9484375 92.07796875 -63.921875 93.1484375 C-63.55334687 103.31590902 -62.49945347 111.75497902 -56 120 C-53.116025 120.21790719 -53.116025 120.21790719 -50 119 C-45.74493628 112.45170879 -44.85998269 105.56968214 -44.75390625 97.9375 C-44.72092964 96.31900579 -44.68771872 94.70051633 -44.65429688 93.08203125 C-44.607239 90.55260939 -44.56286386 88.02320118 -44.52319336 85.49365234 C-44.31737642 72.96470046 -43.96664449 60.81305929 -39.3125 49 C-38.91949707 47.98619263 -38.91949707 47.98619263 -38.51855469 46.9519043 C-34.05918485 35.81795817 -14.72845366 0 0 0 Z " fill="#5DA7F9" transform="translate(985,341)"/>
<path d="M0 0 C14.0374584 11.8934736 22.98253681 29.65001814 24.6875 47.9375 C25.08628833 56.9501163 25 65.97856526 25 75 C-8.99 75 -42.98 75 -78 75 C-76.02560914 87.83354058 -74.31565526 97.17610931 -64.22265625 105.59765625 C-57.60793322 109.7710931 -52.33141928 110.49805044 -44.625 110.4375 C-43.73039062 110.45748047 -42.83578125 110.47746094 -41.9140625 110.49804688 C-34.00762347 110.49230092 -27.03908393 108.37746427 -21.0625 103 C-20.51722656 102.525625 -19.97195313 102.05125 -19.41015625 101.5625 C-17.65749768 99.76042632 -17.65749768 99.76042632 -16 96 C-3.13 96 9.74 96 23 96 C21.48132977 109.66803207 14.82960774 120.25540795 4.375 129.1875 C-1.28345123 133.5175953 -7.44172559 136.29704194 -14 139 C-14.70898438 139.31839844 -15.41796875 139.63679687 -16.1484375 139.96484375 C-33.78787589 147.44485876 -58.3460299 146.25913508 -75.86962891 139.25244141 C-93.89913624 131.57800518 -106.15912722 118.70829552 -114 101 C-115.64566827 96.72028873 -116.92312068 92.45487972 -118 88 C-118.22429687 87.13117188 -118.44859375 86.26234375 -118.6796875 85.3671875 C-123.18732508 64.18746572 -121.307802 37.47892444 -109.87890625 18.71875 C-97.62357589 0.98546532 -82.42053643 -10.10833737 -61.2265625 -14.5859375 C-39.47141063 -17.37776086 -17.67185239 -13.48932933 0 0 Z " fill="#5DA5F9" transform="translate(1371,422)"/>
<path d="M0 0 C43.89 0 87.78 0 133 0 C133 12.54 133 25.08 133 38 C103.63 38 74.26 38 44 38 C44 54.17 44 70.34 44 87 C70.73 87 97.46 87 125 87 C125 98.88 125 110.76 125 123 C98.27 123 71.54 123 44 123 C44 148.41 44 173.82 44 200 C29.48 200 14.96 200 0 200 C0 134 0 68 0 0 Z " fill="#F8F8F9" transform="translate(245,362)"/>
<path d="M0 0 C0.71542969 0.62519531 1.43085937 1.25039063 2.16796875 1.89453125 C2.87308594 2.46816406 3.57820312 3.04179687 4.3046875 3.6328125 C15.46682732 13.56180164 19.44529731 28.13867 20.3337307 42.59101868 C20.58387982 49.94079361 20.51289597 57.29193457 20.4609375 64.64453125 C20.45532995 66.99820686 20.45106535 69.35188602 20.44807434 71.70556641 C20.43671675 77.84739146 20.40732944 83.98899767 20.3739624 90.1307373 C20.34306382 96.41915936 20.32952704 102.70761738 20.31445312 108.99609375 C20.28244965 121.29568366 20.22975765 133.59505487 20.16796875 145.89453125 C5.97796875 145.89453125 -8.21203125 145.89453125 -22.83203125 145.89453125 C-22.84137695 142.91236572 -22.85072266 139.9302002 -22.86035156 136.85766602 C-22.89417103 126.98688514 -22.94974782 117.11631223 -23.01593399 107.24569798 C-23.05538472 101.26315298 -23.08758519 95.28075466 -23.10302734 89.2980957 C-23.11820946 83.52074514 -23.15268341 77.74379786 -23.20034027 71.96662712 C-23.21513789 69.76635182 -23.22307133 67.56601894 -23.2239151 65.36569405 C-23.22629131 62.27534489 -23.25342473 59.18610432 -23.28613281 56.09594727 C-23.28110245 55.1932309 -23.27607208 54.29051453 -23.27088928 53.36044312 C-23.39237399 45.90529175 -25.71965096 40.41516506 -29.51953125 34.08203125 C-35.1237637 28.78073029 -40.7763005 27.62396459 -48.39453125 27.45703125 C-56.96282557 27.72238302 -62.90006442 29.32517689 -69.296875 35.2265625 C-75.89251652 42.39281932 -77.12746224 51.05323497 -77.15087891 60.40991211 C-77.16594734 61.80132919 -77.16594734 61.80132919 -77.18132019 63.22085571 C-77.2120501 66.26702288 -77.22915897 69.31310257 -77.24609375 72.359375 C-77.26481359 74.47930143 -77.28438761 76.59922046 -77.30477905 78.71913147 C-77.35601995 84.28390134 -77.39568874 89.84869535 -77.43292236 95.41357422 C-77.48006783 102.09844301 -77.54163117 108.78319279 -77.60076904 115.46796417 C-77.68888321 125.61010495 -77.75871802 135.75222404 -77.83203125 145.89453125 C-91.69203125 145.89453125 -105.55203125 145.89453125 -119.83203125 145.89453125 C-119.83203125 95.73453125 -119.83203125 45.57453125 -119.83203125 -6.10546875 C-105.97203125 -6.10546875 -92.11203125 -6.10546875 -77.83203125 -6.10546875 C-77.50203125 1.15453125 -77.17203125 8.41453125 -76.83203125 15.89453125 C-74.85203125 12.92453125 -72.87203125 9.95453125 -70.83203125 6.89453125 C-54.15918261 -12.00747115 -20.09831382 -15.99112071 0 0 Z " fill="#5CA4F8" transform="translate(828.83203125,416.10546875)"/>
<path d="M0 0 C14.19 0 28.38 0 43 0 C43.00410889 3.00722168 43.00821777 6.01444336 43.01245117 9.11279297 C43.02968244 19.07139043 43.07424077 29.02973237 43.13209057 38.98817253 C43.16631685 45.02341514 43.19146384 51.05840576 43.19555664 57.09375 C43.19984882 62.92303012 43.22838877 68.75174223 43.27343178 74.58084488 C43.28637724 76.79983329 43.29072499 79.01888977 43.28615379 81.23791122 C43.28122698 84.35697802 43.30743386 87.47439792 43.34057617 90.59326172 C43.32763771 91.95596947 43.32763771 91.95596947 43.31443787 93.34620667 C43.42151792 99.39506604 44.8826893 103.60545909 47.83177662 108.88539314 C49 111 49 111 50 114 C51.69769234 115.10168984 51.69769234 115.10168984 54 116 C54.928125 116.53625 55.85625 117.0725 56.8125 117.625 C63.55544602 120.44424898 72.07870311 120.1548322 78.984375 118.12109375 C87.33372714 114.28798209 91.69438577 108.49498011 95.23828125 100.2109375 C97.10622764 94.78910338 97.1669865 89.56784967 97.20532227 83.89526367 C97.21522186 82.98745148 97.22512146 82.07963928 97.23532104 81.14431763 C97.26683635 78.15222761 97.29165401 75.16012172 97.31640625 72.16796875 C97.33698439 70.09002781 97.35798108 68.01209098 97.37937927 65.93415833 C97.43451114 60.47127614 97.48395956 55.00835673 97.53222656 49.54541016 C97.59135034 42.98743885 97.65752936 36.4295354 97.72252655 29.87162018 C97.82042425 19.91445498 97.90935686 9.95724579 98 0 C111.53 0 125.06 0 139 0 C139 50.16 139 100.32 139 152 C125.47 152 111.94 152 98 152 C98 144.41 98 136.82 98 129 C97.34 129 96.68 129 96 129 C95.82984375 129.87398437 95.82984375 129.87398437 95.65625 130.765625 C93.21777443 139.06805372 84.43249993 146.57353662 77.1171875 150.578125 C68.69208145 154.48737421 62.11674012 155.20721417 52.875 155.25 C51.23917969 155.2809375 51.23917969 155.2809375 49.5703125 155.3125 C36.65158261 155.3743121 25.42153236 151.61191065 15.63671875 142.89453125 C2.4302117 128.84240982 -0.18613658 110.03806296 -0.11352539 91.50146484 C-0.11367142 90.50514038 -0.11381744 89.50881592 -0.1139679 88.4822998 C-0.11327735 85.22515603 -0.10552555 81.96807115 -0.09765625 78.7109375 C-0.09578902 76.43836498 -0.09436656 74.16579206 -0.09336853 71.89321899 C-0.0895674 65.93881094 -0.07975784 59.98442764 -0.06866455 54.0300293 C-0.05839854 47.94320002 -0.05385983 41.85636671 -0.04882812 35.76953125 C-0.03813324 23.84634159 -0.02055611 11.92317674 0 0 Z " fill="#FAFAFB" transform="translate(407,410)"/>
<path d="M0 0 C11.74496822 8.71974913 19.37341613 21.41251529 22.06640625 35.7421875 C22.39774625 38.88744478 22.328125 42.06390072 22.328125 45.2265625 C9.458125 45.2265625 -3.411875 45.2265625 -16.671875 45.2265625 C-17.661875 41.2665625 -17.661875 41.2665625 -18.671875 37.2265625 C-22.83065274 29.56038184 -29.08432241 25.27223068 -37.3203125 22.765625 C-45.48133068 20.89482681 -53.62813173 22.39607021 -60.90625 26.48046875 C-69.62286791 32.49362434 -73.1128514 41.21331272 -75.671875 51.2265625 C-76.19419774 55.49572441 -76.24585339 59.67970474 -76.171875 63.9765625 C-76.15979004 65.10892334 -76.14770508 66.24128418 -76.13525391 67.40795898 C-75.80974563 81.24206056 -73.70139007 93.50218555 -64.046875 103.9921875 C-56.11472986 111.5571037 -47.22498283 111.57665937 -36.85546875 111.33203125 C-35.27958984 111.27982422 -35.27958984 111.27982422 -33.671875 111.2265625 C-33.671875 110.5665625 -33.671875 109.9065625 -33.671875 109.2265625 C-33.15238281 109.00742187 -32.63289063 108.78828125 -32.09765625 108.5625 C-24.65389497 105.1777213 -20.97482418 100.82334562 -17.671875 93.2265625 C-17.176875 91.2465625 -17.176875 91.2465625 -16.671875 89.2265625 C-3.801875 89.2265625 9.068125 89.2265625 22.328125 89.2265625 C21.65149672 95.99284526 21.13314076 101.06568178 18.765625 107.1640625 C18.50386475 107.84718506 18.24210449 108.53030762 17.97241211 109.23413086 C15.3807748 115.64954477 11.82017826 120.96368354 7.328125 126.2265625 C6.80863281 126.86851562 6.28914063 127.51046875 5.75390625 128.171875 C-4.78217113 140.00837503 -21.39121503 144.93732051 -36.671875 146.2265625 C-58.41996264 147.31823959 -78.88146411 144.26559266 -95.671875 129.2265625 C-96.66380859 128.35451172 -96.66380859 128.35451172 -97.67578125 127.46484375 C-103.11603174 122.37557716 -106.959295 116.6547381 -110.671875 110.2265625 C-111.06246094 109.57042969 -111.45304687 108.91429687 -111.85546875 108.23828125 C-121.99412019 89.81512862 -123.09336643 60.57929541 -118.23779297 40.14208984 C-112.66275779 20.93052729 -101.22582705 5.85112668 -84.03515625 -4.3359375 C-78.4674342 -7.27275792 -72.75354665 -9.20309542 -66.671875 -10.7734375 C-65.5065625 -11.12148438 -64.34125 -11.46953125 -63.140625 -11.828125 C-41.91689306 -17.06093254 -17.98252445 -11.93576915 0 0 Z " fill="#5DA5FA" transform="translate(1205.671875,419.7734375)"/>
<path d="M0 0 C0 12.54 0 25.08 0 38 C-3.63 37.34 -7.26 36.68 -11 36 C-23.24857135 35.06615502 -33.36967314 35.91688858 -43.8125 43 C-50.17731662 48.597002 -53.81479984 55.26452004 -54.55877686 63.70593262 C-54.8629168 69.38064191 -54.83235409 75.05343176 -54.8046875 80.734375 C-54.81595394 82.82474286 -54.82984166 84.91509808 -54.84622192 87.00543213 C-54.88208429 92.47004632 -54.88265569 97.93409903 -54.87554932 103.39880371 C-54.87447131 109.97535168 -54.91780587 116.55174292 -54.95358276 123.12817383 C-55.0028381 133.08573865 -54.99613726 143.04184871 -55 153 C-68.86 153 -82.72 153 -97 153 C-97 102.84 -97 52.68 -97 1 C-83.14 1 -69.28 1 -55 1 C-54.67 7.6 -54.34 14.2 -54 21 C-53.195625 19.68 -52.39125 18.36 -51.5625 17 C-45.34855431 7.71563409 -37.10460558 1.26403378 -26.1875 -1.25 C-16.85950901 -2.84990045 -9.3672521 -1.87345042 0 0 Z " fill="#F9F9FA" transform="translate(682,409)"/>
<path d="M0 0 C7.08073553 5.27062269 12.4645971 11.64083372 14.078125 20.546875 C14.078125 22.856875 14.078125 25.166875 14.078125 27.546875 C-6.381875 27.546875 -26.841875 27.546875 -47.921875 27.546875 C-46.71432059 16.67888532 -44.18335934 9.66110469 -36.05859375 2.2421875 C-26.24577572 -5.54348531 -10.82992817 -6.55689529 0 0 Z " fill="#232F43" transform="translate(1340.921875,443.453125)"/>
<path d="M0 0 C2.16874252 0.50603992 3.99967627 0.99983813 6 2 C6 3.65 6 5.3 6 7 C5.505 5.02 5.505 5.02 5 3 C-7.54 3 -20.08 3 -33 3 C-33 2.67 -33 2.34 -33 2 C-22.11 2 -11.22 2 0 2 C0 1.34 0 0.68 0 0 Z " fill="#24324B" transform="translate(1389,515)"/>
<path d="M0 0 C5.28 0 10.56 0 16 0 C15.01 0.495 15.01 0.495 14 1 C14 1.66 14 2.32 14 3 C12.22992286 3.08114106 10.45877902 3.13925505 8.6875 3.1875 C7.70136719 3.22230469 6.71523437 3.25710938 5.69921875 3.29296875 C3 3 3 3 0 0 Z " fill="#232F45" transform="translate(1318,566)"/>
<path d="M0 0 C1.16015625 0.00322266 2.3203125 0.00644531 3.515625 0.00976562 C5.32546875 0.02233398 5.32546875 0.02233398 7.171875 0.03515625 C9.00492188 0.04192383 9.00492188 0.04192383 10.875 0.04882812 C13.89067446 0.0606081 16.90624998 0.07705772 19.921875 0.09765625 C19.921875 0.42765625 19.921875 0.75765625 19.921875 1.09765625 C18.8548938 1.13524048 18.8548938 1.13524048 17.76635742 1.17358398 C14.54717983 1.28954064 11.32829515 1.4122687 8.109375 1.53515625 C6.98982422 1.57447266 5.87027344 1.61378906 4.71679688 1.65429688 C3.10708008 1.71713867 3.10708008 1.71713867 1.46484375 1.78125 C-0.0197937 1.83623657 -0.0197937 1.83623657 -1.53442383 1.89233398 C-4.1999601 2.00555956 -4.1999601 2.00555956 -7.078125 3.09765625 C-8.068125 2.43765625 -9.058125 1.77765625 -10.078125 1.09765625 C-6.66747361 0.05791126 -3.55547658 -0.01742881 0 0 Z " fill="#487BB7" transform="translate(1153.078125,406.90234375)"/>
<path d="M0 0 C0 3 0 3 -2.1875 5.48046875 C-3.115625 6.37378906 -4.04375 7.26710938 -5 8.1875 C-5.928125 9.08855469 -6.85625 9.98960937 -7.8125 10.91796875 C-8.534375 11.60503906 -9.25625 12.29210937 -10 13 C-10.66 12.67 -11.32 12.34 -12 12 C-8.27653164 7.57905197 -4.70478962 3.42166518 0 0 Z " fill="#5B9EE9" transform="translate(1279,421)"/>
<path d="M0 0 C0.33 0 0.66 0 1 0 C1.38063221 2.3260857 1.71269945 4.66055264 2 7 C1.67 7.33 1.34 7.66 1 8 C0.76346477 10.52596259 0.57826308 13.03107207 0.4375 15.5625 C0.39431641 16.27341797 0.35113281 16.98433594 0.30664062 17.71679688 C0.20028223 19.47761912 0.09961154 21.2387832 0 23 C-0.33 23 -0.66 23 -1 23 C-1.02714434 20.2915983 -1.04690846 17.58347279 -1.0625 14.875 C-1.07087891 14.11445313 -1.07925781 13.35390625 -1.08789062 12.5703125 C-1.10646509 8.2610356 -0.86117265 4.24483526 0 0 Z " fill="#4171A8" transform="translate(887,487)"/>
<path d="M0 0 C0.99 0.33 1.98 0.66 3 1 C4.1875 3.5625 4.1875 3.5625 5 6 C1.31245243 5.50168276 -0.60490662 4.89932357 -3 2 C-2.01 2 -1.02 2 0 2 C0 1.34 0 0.68 0 0 Z " fill="#589ADD" transform="translate(936,568)"/>
<path d="M0 0 C0 4.29 0 8.58 0 13 C-0.33 13 -0.66 13 -1 13 C-1.07347656 12.04287109 -1.07347656 12.04287109 -1.1484375 11.06640625 C-1.22320313 10.24011719 -1.29796875 9.41382813 -1.375 8.5625 C-1.44460938 7.73878906 -1.51421875 6.91507812 -1.5859375 6.06640625 C-1.72257813 5.38449219 -1.85921875 4.70257813 -2 4 C-2.66 3.67 -3.32 3.34 -4 3 C-1.125 0 -1.125 0 0 0 Z " fill="#559CE4" transform="translate(921,431)"/>
<path d="M0 0 C-1.1875 1.5625 -1.1875 1.5625 -3 3 C-5.6875 2.6875 -5.6875 2.6875 -8 2 C-6.14210462 -1.71579076 -3.44525918 -1.06921837 0 0 Z " fill="#454E5C" transform="translate(484,562)"/>
<path d="M0 0 C0.66 0.66 1.32 1.32 2 2 C-1.08809695 3.76462683 -2.23312136 4 -6 4 C-6 3.34 -6 2.68 -6 2 C-4.02 1.34 -2.04 0.68 0 0 Z " fill="#5B9DE6" transform="translate(1191,558)"/>
</svg>
