<svg xmlns="http://www.w3.org/2000/svg" viewBox="830 315 280 280" width="64" height="64">
<rect width="1780" height="884" fill="#202A3A"/>
<path d="M0 0 C-0.02618408 0.81976318 -0.05236816 1.63952637 -0.0793457 2.48413086 C-0.92342102 25.25028646 -0.92342102 25.25028646 5 47 C5.30534668 47.69254883 5.61069336 48.38509766 5.92529297 49.09863281 C13.51871003 65.87928761 24.41889647 79.15620683 37 92.4375 C57.97635865 114.71436436 70.88701058 137.20620027 70.328125 168.5390625 C69.48266706 188.36574426 58.32391331 205.82506369 44 219 C37.22472523 224.5366049 29.33563205 230.20000005 21 233 C20.01 232.67 19.02 232.34 18 232 C18.54269531 230.91203125 19.08539062 229.8240625 19.64453125 228.703125 C29.04773097 209.53556915 31.56683502 193.68288773 25.00390625 172.8359375 C18.18167825 154.94234296 3.22705946 137.61352973 -14 129 C-13.95359375 130.30453125 -13.9071875 131.6090625 -13.859375 132.953125 C-13.51509677 146.67694862 -14.17989882 158.47521563 -24 169 C-29.39138667 174.65863213 -35.97313885 179.72873503 -44.09375 180.09423828 C-46.06274825 180.09727151 -48.03168953 180.05212687 -50 180 C-52.53427758 197.21951105 -54.50167708 213.70375391 -44.98828125 229.22265625 C-44 231 -44 231 -44 233 C-60.57215574 230.57024784 -75.21726872 216.66132158 -85.265625 204.1875 C-96.95663266 187.76654267 -101.12166663 168.06167945 -98.5 148.21484375 C-96.96736434 140.35137784 -94.37899961 133.24348768 -91 126 C-90.59265625 125.05898438 -90.1853125 124.11796875 -89.765625 123.1484375 C-84.20503073 111.01325824 -75.30868501 98.58586368 -65 90 C-64.67 90 -64.34 90 -64 90 C-63.97421875 91.03898437 -63.9484375 92.07796875 -63.921875 93.1484375 C-63.55334687 103.31590902 -62.49945347 111.75497902 -56 120 C-53.116025 120.21790719 -53.116025 120.21790719 -50 119 C-45.74493628 112.45170879 -44.85998269 105.56968214 -44.75390625 97.9375 C-44.72092964 96.31900579 -44.68771872 94.70051633 -44.65429688 93.08203125 C-44.607239 90.55260939 -44.56286386 88.02320118 -44.52319336 85.49365234 C-44.31737642 72.96470046 -43.96664449 60.81305929 -39.3125 49 C-38.91949707 47.98619263 -38.91949707 47.98619263 -38.51855469 46.9519043 C-34.05918485 35.81795817 -14.72845366 0 0 0 Z " fill="#5DA7F9" transform="translate(985,341)"/>
</svg>